<svg
      width="1816"
      height="617"
      viewBox="0 0 1816 617"
      fill="none"
      xmlns="http://www.w3.org/2000/svg"
    >
      <g clipPath="url(#clip0)">
        <path d="M300.486 -0.00012207V616.542Z" fill="#333337" />
        <path
          d="M300.486 -0.00012207V616.542"
          stroke="#333337"
          strokeWidth="0.799997"
        />
        <path d="M543.384 -0.00012207V616.542Z" fill="#333337" />
        <path
          d="M543.384 -0.00012207V616.542"
          stroke="#333337"
          strokeWidth="0.799997"
        />
        <path d="M1033.92 -0.00012207V616.542Z" fill="#333337" />
        <path
          d="M1033.92 -0.00012207V616.542"
          stroke="#333337"
          strokeWidth="0.799997"
        />
        <path d="M1258.15 -0.00012207V616.542Z" fill="#333337" />
        <path
          d="M1258.15 -0.00012207V616.542"
          stroke="#333337"
          strokeWidth="0.799997"
        />
        <path d="M1442.67 -0.00012207V616.542Z" fill="#333337" />
        <path
          d="M1442.67 -0.00012207V616.542"
          stroke="#333337"
          strokeWidth="0.799997"
        />
        <path d="M1627.63 -0.00012207V616.542Z" fill="#333337" />
        <path
          d="M1627.63 -0.00012207V616.542"
          stroke="#333337"
          strokeWidth="0.799997"
        />
        <path
          d="M1262.77 119.143H1253.58V128.329H1262.77V119.143Z"
          fill="white"
          stroke="#646466"
          strokeWidth="0.799997"
          strokeLinecap="round"
        />
        <path
          d="M1262.77 397.938H1253.58V407.124H1262.77V397.938Z"
          fill="white"
          stroke="#646466"
          strokeWidth="0.799997"
          strokeLinecap="round"
        />
        <path
          d="M1262.77 537.06H1253.58V546.245H1262.77V537.06Z"
          fill="white"
          stroke="#646466"
          strokeWidth="0.799997"
          strokeLinecap="round"
        />
        <path
          d="M1447.28 119.143H1438.09V128.329H1447.28V119.143Z"
          fill="white"
          stroke="#646466"
          strokeWidth="0.799997"
          strokeLinecap="round"
        />
        <path
          d="M1447.28 258.771H1438.09V267.957H1447.28V258.771Z"
          fill="white"
          stroke="#646466"
          strokeWidth="0.799997"
          strokeLinecap="round"
        />
        <path
          d="M1632.25 258.771H1623.06V267.957H1632.25V258.771Z"
          fill="white"
          stroke="#646466"
          strokeWidth="0.799997"
          strokeLinecap="round"
        />
        <path
          d="M1632.25 397.938H1623.06V407.124H1632.25V397.938Z"
          fill="white"
          stroke="#646466"
          strokeWidth="0.799997"
          strokeLinecap="round"
        />
        <path
          d="M1632.25 537.06H1623.06V546.245H1632.25V537.06Z"
          fill="white"
          stroke="#646466"
          strokeWidth="0.799997"
          strokeLinecap="round"
        />
        <path
          d="M1448.95 435.021C1448.95 431.553 1446.14 428.741 1442.67 428.741C1439.2 428.741 1436.39 431.553 1436.39 435.021V456.622C1436.39 460.09 1439.2 462.901 1442.67 462.901C1446.14 462.901 1448.95 460.09 1448.95 456.622V435.021Z"
          fill="#FAC921"
          stroke="#646466"
          strokeWidth="0.799997"
          strokeLinecap="round"
        />
        <path
          d="M1264.44 179.836C1264.44 176.368 1261.63 173.556 1258.16 173.556C1254.69 173.556 1251.88 176.368 1251.88 179.836V201.437C1251.88 204.905 1254.69 207.716 1258.16 207.716C1261.63 207.716 1264.44 204.905 1264.44 201.437V179.836Z"
          fill="#FAC921"
          stroke="#646466"
          strokeWidth="0.799997"
          strokeLinecap="round"
        />
        <path
          d="M1435.03 367.31H1436.57V367.971H1435.03V369.708H1434.33V367.971H1432.8V367.31H1434.33V365.705H1435.03V367.31Z"
          fill="#FACD32"
        />
        <path
          d="M1250.52 133.211H1252.05V133.872H1250.52V135.609H1249.82V133.872H1248.28V133.211H1249.82V131.606H1250.52V133.211Z"
          fill="#FACD32"
        />
        <path
          d="M1026.29 63.8858H1027.82V64.5466H1026.29V66.2834H1025.59V64.5466H1024.06V63.8858H1025.59V62.2811H1026.29V63.8858Z"
          fill="#FACD32"
        />
        <path
          d="M1040.2 287.792C1040.2 284.324 1037.39 281.513 1033.92 281.513C1030.46 281.513 1027.65 284.324 1027.65 287.792V309.393C1027.65 312.861 1030.46 315.673 1033.92 315.673C1037.39 315.673 1040.2 312.861 1040.2 309.393V287.792Z"
          fill="#FAC921"
          stroke="#646466"
          strokeWidth="0.799997"
          strokeLinecap="round"
        />
        <path
          d="M1632.25 119.143H1623.06V128.329H1632.25V119.143Z"
          fill="white"
          stroke="#646466"
          strokeWidth="0.799997"
          strokeLinecap="round"
        />
        <path
          d="M1262.77 258.771H1253.58V267.957H1262.77V258.771Z"
          fill="white"
          stroke="#646466"
          strokeWidth="0.799997"
          strokeLinecap="round"
        />
        <path
          d="M1447.28 537.06H1438.09V546.245H1447.28V537.06Z"
          fill="white"
          stroke="#646466"
          strokeWidth="0.799997"
          strokeLinecap="round"
        />
        <path
          opacity="0.2"
          d="M1815.89 210.731H927.225V616.909H1815.89V210.731Z"
          fill="black"
        />
      </g>
      <defs>
        <clipPath id="clip0">
          <rect width="1815.9" height="616.92" fill="white" />
        </clipPath>
      </defs>
    </svg>