<svg width="307" height="233" viewBox="0 0 307 233" fill="none" xmlns="http://www.w3.org/2000/svg">
<path fill-rule="evenodd" clip-rule="evenodd" d="M3.12096 2.97905L0.907959 5.33504V116.782C0.907959 227.532 0.920959 228.243 2.98396 230.457L5.05896 232.684H153.442H301.826L304.039 230.329L306.252 227.973V116.526C306.252 5.77605 306.239 5.06505 304.177 2.85105L302.101 0.623047H153.718H5.33396L3.12096 2.97905ZM211.34 79.757L153.58 137.517L95.82 79.757L38.061 21.997H153.58H269.1L211.34 79.757ZM62.995 77.468L102.171 116.654L62.995 155.84C41.448 177.392 23.473 195.025 23.051 195.025C22.628 195.025 22.282 159.758 22.282 116.654C22.282 73.5501 22.628 38.282 23.051 38.282C23.473 38.282 41.448 55.916 62.995 77.468ZM284.878 116.654C284.878 159.758 284.532 195.025 284.11 195.025C283.687 195.025 265.859 177.506 244.491 156.094L205.641 117.163L244.496 77.724C265.866 56.033 283.695 38.285 284.115 38.284C284.534 38.283 284.878 73.5501 284.878 116.654ZM129.679 144.244C150.063 164.858 156.132 164.876 177.569 144.389C184.159 138.092 189.818 132.939 190.145 132.939C190.473 132.939 208.369 150.573 229.916 172.125L269.092 211.31H153.58H38.068L77.244 172.125C98.791 150.573 116.888 132.939 117.46 132.939C118.032 132.939 123.531 138.026 129.679 144.244Z" fill="white"/>
</svg>
