<svg width="388" height="389" viewBox="0 0 388 389" fill="none" xmlns="http://www.w3.org/2000/svg">
<path fillRule="evenodd" clipRule="evenodd" d="M184.63 0.777016C180.568 0.921016 177.078 1.14202 176.874 1.26802C176.67 1.39402 174.273 1.69902 171.547 1.94602C168.822 2.19302 165.341 2.64202 163.811 2.94402C162.282 3.24602 158.796 3.88402 156.066 4.36002C153.335 4.83702 150.385 5.46502 149.511 5.75602C148.638 6.04702 147.208 6.40002 146.334 6.54202C144.523 6.83502 142.355 7.47402 134.218 10.113C126.282 12.687 126.278 12.689 124.443 13.527C123.545 13.937 122.686 14.272 122.535 14.272C122.383 14.272 121.508 14.604 120.592 15.009C119.675 15.414 117.853 16.166 116.542 16.678C115.231 17.191 113.877 17.843 113.532 18.126C113.187 18.41 112.74 18.64 112.539 18.638C112.228 18.635 104.051 22.708 100.563 24.603C97.0361 26.519 94.3761 28.081 91.9151 29.682C90.3851 30.676 87.6151 32.472 85.7581 33.672C83.9011 34.872 82.2031 36.052 81.9841 36.294C81.7661 36.536 80.5551 37.412 79.2941 38.241C78.0331 39.07 76.5141 40.18 75.9181 40.708C75.3221 41.236 74.6551 41.806 74.4371 41.975C74.2181 42.145 73.2351 42.901 72.2521 43.657C65.3801 48.941 55.3651 58.63 47.3481 67.752C44.6231 70.853 43.6251 72.078 41.5701 74.848C41.4081 75.066 40.7331 75.883 40.0711 76.663C38.1711 78.9 30.5441 89.982 30.5441 90.505C30.5441 90.688 30.2811 91.057 29.9581 91.324C29.6361 91.592 28.1991 93.893 26.7641 96.438C25.3301 98.982 23.9871 101.333 23.7821 101.66C22.8031 103.217 16.6421 115.91 16.6421 116.369C16.6421 116.656 16.4101 117.173 16.1261 117.518C15.8431 117.863 15.2041 119.217 14.7061 120.528C14.2081 121.839 13.4811 123.716 13.0911 124.699C12.7001 125.682 12.1601 127.112 11.8911 127.877C10.0611 133.084 9.0941 136.001 8.3381 138.602C7.8611 140.24 7.2761 142.196 7.0381 142.947C6.4391 144.839 5.2851 149.812 3.7621 157.072C2.7291 161.998 1.9411 167.037 1.5471 171.241C1.3351 173.498 0.942103 176.685 0.674103 178.324C0.0281032 182.27 0.0261035 207.75 0.671103 211.094C0.925103 212.405 1.3111 215.444 1.5291 217.847C1.9411 222.379 2.7391 227.498 3.7261 231.948C4.0411 233.368 4.4991 235.687 4.7441 237.102C4.9891 238.516 5.3471 239.968 5.5391 240.327C5.7321 240.687 6.0561 241.943 6.2591 243.118C6.4621 244.294 6.8181 245.791 7.0501 246.447C7.2811 247.102 7.8571 248.979 8.3291 250.618C9.5531 254.869 11.0361 259.35 11.7011 260.807C12.0151 261.495 12.2721 262.21 12.2721 262.396C12.2721 262.74 15.0401 269.715 16.0321 271.869C17.1861 274.376 23.4101 286.992 23.7721 287.559C23.9821 287.887 24.9971 289.674 26.0291 291.531C27.6471 294.445 30.9141 299.693 33.5441 303.606C33.9691 304.24 34.5861 305.158 34.9141 305.648C36.4951 308.01 41.1631 314.23 41.6091 314.57C41.7521 314.679 42.6331 315.795 43.5661 317.05C44.5001 318.305 45.7501 319.842 46.3451 320.465C46.9391 321.088 49.7501 324.143 52.5901 327.253C55.4301 330.363 60.0771 334.989 62.9181 337.533C65.7581 340.076 68.1711 342.278 68.2801 342.425C68.7401 343.044 80.4711 352.089 83.1561 353.895C87.8041 357.021 93.5961 360.729 96.2331 362.267C100.873 364.972 111.552 370.578 112.066 370.578C112.217 370.578 113.644 371.191 115.236 371.94C118.797 373.615 125.932 376.535 126.473 376.539C126.691 376.54 127.317 376.77 127.863 377.051C128.409 377.331 130.465 378.065 132.431 378.682C134.397 379.299 136.453 379.98 136.999 380.196C138.194 380.669 142.864 381.969 145.341 382.52C146.324 382.738 148.022 383.168 149.114 383.474C151.006 384.004 155.143 384.828 163.017 386.243C164.983 386.597 168.558 387.063 170.961 387.28C173.364 387.497 176.265 387.843 177.407 388.048C181.143 388.722 196.069 389.043 196.766 388.465C197.52 387.839 197.717 239.682 196.965 238.278C196.567 237.534 195.923 237.509 176.786 237.509C161.941 237.509 156.9 237.391 156.542 237.033C156.037 236.528 155.811 190.97 156.307 189.677C156.522 189.116 158.674 189.049 176.516 189.049C192.431 189.049 196.572 188.944 196.914 188.532C197.205 188.18 197.387 181.273 197.479 166.982C197.615 146.055 198.127 137.334 199.358 135.035C199.564 134.65 199.906 133.374 200.117 132.198C201.164 126.389 205.632 116.828 209.972 111.115C216.991 101.874 233.896 91.333 241.698 91.333C242.256 91.333 243.079 91.136 243.527 90.896C247.716 88.654 294.388 89.278 296.717 91.607C296.937 91.827 297.044 100.445 296.983 113.005L296.88 134.034L281.786 134.281C264.126 134.571 258.831 135.307 255.941 137.874C255.49 138.274 254.924 138.602 254.683 138.602C253.924 138.602 251.131 142.099 249.999 144.467C247.834 148.994 247.435 153.213 247.43 171.631L247.426 188.177L248.677 188.613C249.529 188.909 257.142 189.049 272.523 189.049C298.456 189.049 295.922 188.563 295.14 193.388C294.872 195.043 294.478 198.095 294.265 200.171C294.051 202.246 293.62 205.464 293.305 207.321C292.991 209.178 292.538 212.654 292.299 215.046C292.06 217.438 291.796 219.505 291.713 219.639C291.63 219.774 291.372 221.749 291.141 224.029C290.55 229.842 289.476 236.424 289.022 237.013C288.725 237.398 284.174 237.509 268.657 237.509C251.006 237.509 248.601 237.582 248.049 238.135C246.988 239.195 247.305 380.635 248.368 380.839C248.777 380.918 249.76 380.718 250.553 380.395C251.346 380.071 253.603 379.301 255.569 378.683C257.535 378.065 259.591 377.331 260.137 377.051C260.683 376.77 261.497 376.54 261.944 376.539C262.392 376.537 262.929 376.373 263.136 376.173C263.344 375.973 265.18 375.162 267.216 374.371C269.253 373.58 271.219 372.786 271.586 372.608C271.952 372.43 273.057 371.917 274.04 371.467C278.423 369.464 288.1 364.517 289.929 363.345C290.475 362.995 291.547 362.375 292.312 361.966C294.569 360.761 304.361 354.41 306.259 352.921C306.829 352.473 307.704 351.839 308.203 351.511C321.957 342.477 342.386 321.461 353.766 304.64C354.579 303.438 355.339 302.365 355.456 302.256C355.942 301.802 357.456 299.484 357.456 299.194C357.457 299.021 358.169 297.854 359.039 296.601C359.909 295.348 361.115 293.412 361.719 292.299C362.324 291.187 363.212 289.62 363.693 288.818C364.174 288.017 364.774 286.914 365.026 286.367C365.279 285.821 365.631 285.106 365.809 284.779C366.478 283.55 369.496 277.349 370.449 275.245C370.994 274.044 371.768 272.346 372.169 271.472C372.571 270.598 373.306 268.81 373.802 267.5C374.299 266.189 374.936 264.764 375.217 264.333C375.498 263.902 375.728 263.206 375.728 262.787C375.728 262.368 376.071 261.291 376.49 260.393C377.71 257.779 380.543 248.592 381.894 242.872C382.203 241.561 382.737 239.327 383.079 237.907C385.076 229.622 386.325 221.379 387.656 207.718C388.087 203.3 388.086 185.369 387.655 181.303C387.47 179.555 387.112 176.159 386.86 173.756C386.068 166.208 384.642 157.733 383.083 151.313C382.739 149.893 382.203 147.658 381.894 146.348C380.543 140.627 377.71 131.44 376.49 128.826C376.071 127.929 375.728 126.847 375.728 126.423C375.728 125.999 375.567 125.483 375.371 125.275C375.175 125.068 374.529 123.646 373.936 122.117C373.342 120.588 372.537 118.622 372.146 117.748C370.543 114.162 368.055 108.881 367.059 106.948C366.474 105.814 365.37 103.669 364.606 102.181C363.841 100.693 362.992 99.239 362.719 98.951C362.446 98.662 362.222 98.263 362.222 98.065C362.222 97.618 360.142 94.263 355.616 87.411C354.553 85.801 353.488 84.149 353.25 83.74C353.012 83.331 352.542 82.682 352.206 82.299C351.871 81.915 350.903 80.594 350.057 79.364C349.211 78.133 347.942 76.435 347.237 75.59C346.533 74.745 345.103 72.976 344.06 71.659C343.016 70.342 341.805 68.901 341.368 68.458C340.931 68.014 338.818 65.664 336.672 63.235C333.126 59.223 327.904 54.129 322.103 49.024C320.902 47.966 319.74 46.891 319.521 46.634C319.014 46.038 312.472 40.909 308.598 38.069C303.149 34.076 295.946 29.412 290.224 26.17C287.112 24.408 284.298 22.806 283.97 22.611C283.11 22.098 280.362 20.738 279.204 20.252C278.657 20.023 277.942 19.669 277.615 19.465C277.287 19.261 276.17 18.725 275.132 18.272C271.249 16.58 269.811 15.965 267.684 15.088C266.483 14.593 264.735 13.849 263.801 13.435C262.866 13.022 261.789 12.683 261.406 12.683C261.024 12.683 260.337 12.421 259.88 12.101C259.423 11.781 258.355 11.344 257.507 11.13C255.406 10.601 252.267 9.56502 250.69 8.88002C249.972 8.56902 248.989 8.30602 248.505 8.29602C248.021 8.28702 246.91 8.01502 246.036 7.69302C245.162 7.37002 243.374 6.85402 242.064 6.54502C240.753 6.23602 238.965 5.80602 238.091 5.58802C237.217 5.37002 234.626 4.83302 232.332 4.39502C230.038 3.95602 227.088 3.39202 225.778 3.14202C224.467 2.89102 221.071 2.44902 218.23 2.16002C215.39 1.87102 211.547 1.44802 209.69 1.22102C205.119 0.663016 193.61 0.459016 184.63 0.777016Z" fill="white"/>
</svg>
