<svg id="svg" version="1.1" xmlns="http://www.w3.org/2000/svg" xmlns:xlink="http://www.w3.org/1999/xlink" width="400" height="518.3431952662722" viewBox="0, 0, 400,518.3431952662722"><g id="svgg"><path id="path0" d="M188.400 4.218 C 181.214 4.801,173.769 5.855,171.229 6.647 C 170.255 6.951,169.072 7.200,168.600 7.200 C 168.128 7.200,166.945 7.448,165.971 7.752 C 146.377 13.855,136.518 19.121,126.662 28.745 C 120.515 34.747,114.840 43.076,112.315 49.800 C 110.185 55.471,109.239 58.563,108.989 60.670 C 108.837 61.952,108.465 64.080,108.162 65.400 C 107.018 70.388,107.677 87.770,109.254 94.200 C 113.273 110.591,113.689 110.269,96.600 104.002 C 79.649 97.787,76.216 96.857,64.200 95.229 C 57.562 94.329,48.287 94.887,41.843 96.575 C 38.289 97.506,32.374 99.694,31.063 100.564 C 30.368 101.024,29.137 101.750,28.326 102.177 C 27.515 102.604,25.625 103.997,24.126 105.272 C 22.627 106.546,21.281 107.592,21.135 107.595 C 20.718 107.603,15.986 113.487,13.730 116.802 C 9.451 123.091,6.186 131.508,4.344 141.000 C 3.598 144.839,3.600 161.897,4.345 166.000 C 5.070 169.990,5.949 173.838,6.582 175.800 C 6.866 176.680,7.324 178.120,7.600 179.000 C 7.876 179.880,8.708 181.909,9.451 183.509 C 10.193 185.109,10.800 186.481,10.800 186.557 C 10.800 186.941,15.395 194.784,16.333 196.000 C 16.926 196.770,17.903 198.120,18.503 199.000 C 19.772 200.860,25.764 207.197,26.262 207.206 C 26.448 207.210,27.230 207.748,28.000 208.402 C 28.770 209.056,29.630 209.785,29.911 210.022 C 33.359 212.925,43.298 217.269,51.000 219.238 C 55.753 220.453,72.168 220.586,77.200 219.450 C 78.850 219.077,81.460 218.492,83.000 218.150 C 85.883 217.508,87.113 217.151,92.600 215.357 C 95.940 214.266,96.421 214.073,101.000 211.993 C 102.540 211.293,104.610 210.396,105.600 209.998 C 106.590 209.600,108.840 208.478,110.600 207.504 C 118.245 203.274,121.804 201.479,124.317 200.587 C 125.793 200.063,127.990 199.253,129.200 198.787 C 130.410 198.321,131.850 197.787,132.400 197.600 C 132.950 197.413,134.390 196.873,135.600 196.399 C 136.810 195.926,138.970 195.110,140.400 194.586 C 141.830 194.063,143.990 193.253,145.200 192.787 C 146.410 192.321,147.850 191.798,148.400 191.625 C 149.285 191.346,152.047 190.301,156.400 188.599 C 157.170 188.298,160.860 186.942,164.600 185.585 C 168.340 184.229,171.760 182.967,172.200 182.783 C 174.527 181.807,179.334 180.436,179.679 180.649 C 180.351 181.064,178.246 187.917,174.597 197.200 C 174.294 197.970,172.946 201.660,171.600 205.400 C 170.254 209.140,168.914 212.830,168.622 213.600 C 167.497 216.561,166.691 218.631,166.362 219.400 C 166.174 219.840,165.640 221.280,165.175 222.600 C 164.710 223.920,164.075 225.567,163.765 226.260 C 163.454 226.954,163.200 227.779,163.200 228.094 C 163.200 228.409,163.077 228.790,162.926 228.941 C 162.775 229.092,162.442 229.797,162.185 230.507 C 160.876 234.136,151.147 259.911,150.826 260.600 C 150.476 261.354,147.623 268.950,145.193 275.600 C 144.590 277.250,143.340 280.580,142.414 283.000 C 141.489 285.420,140.492 288.030,140.199 288.800 C 139.906 289.570,139.033 291.820,138.259 293.800 C 137.486 295.780,136.018 299.650,134.998 302.400 C 132.461 309.237,130.016 315.636,129.571 316.600 C 129.369 317.040,128.776 318.570,128.255 320.000 C 127.734 321.430,126.273 325.300,125.008 328.600 C 123.743 331.900,122.201 335.950,121.581 337.600 C 120.961 339.250,120.073 341.590,119.608 342.800 C 119.142 344.010,118.327 346.260,117.797 347.800 C 117.266 349.340,115.910 353.210,114.782 356.400 C 113.655 359.590,112.584 362.650,112.402 363.200 C 112.220 363.750,111.143 366.810,110.009 370.000 C 107.116 378.141,106.893 378.801,106.438 380.600 C 106.215 381.480,105.738 383.190,105.377 384.400 C 102.961 392.507,102.116 398.295,102.988 400.767 C 103.514 402.257,112.256 413.250,123.875 427.033 C 125.374 428.810,129.300 433.490,132.600 437.431 C 135.900 441.372,140.760 447.136,143.400 450.239 C 146.040 453.342,150.450 458.555,153.200 461.823 C 159.698 469.544,169.080 480.254,174.205 485.800 C 176.441 488.220,178.975 491.001,179.835 491.980 C 188.493 501.830,200.580 513.200,202.394 513.200 C 203.297 513.200,206.724 510.515,209.618 507.539 C 214.798 502.213,223.629 492.825,227.800 488.212 C 228.240 487.725,230.065 485.724,231.856 483.764 C 233.646 481.804,235.604 479.660,236.206 479.000 C 236.807 478.340,238.407 476.630,239.759 475.200 C 241.112 473.770,243.473 471.160,245.007 469.400 C 246.541 467.640,248.157 465.839,248.598 465.399 C 249.039 464.958,251.105 462.618,253.188 460.199 C 255.272 457.779,257.646 455.080,258.463 454.200 C 260.114 452.424,260.908 451.518,263.342 448.638 C 264.254 447.558,266.440 445.022,268.200 443.001 C 269.960 440.981,273.110 437.364,275.200 434.963 C 277.290 432.563,280.620 428.639,282.600 426.244 C 284.580 423.850,287.370 420.506,288.800 418.815 C 294.594 411.961,301.592 402.520,302.265 400.646 C 303.025 398.535,301.474 388.284,299.975 385.505 C 299.769 385.123,299.601 384.493,299.602 384.105 C 299.603 383.717,299.338 382.590,299.014 381.600 C 297.460 376.864,296.568 374.211,294.977 369.600 C 293.229 364.533,289.631 354.327,288.560 351.400 C 288.239 350.520,287.546 348.519,287.022 346.954 C 286.171 344.414,285.448 342.466,283.325 337.000 C 282.984 336.120,282.547 335.040,282.356 334.600 C 282.164 334.160,281.542 332.540,280.973 331.000 C 280.404 329.460,279.490 327.030,278.943 325.600 C 277.169 320.971,276.904 320.272,274.989 315.200 C 273.951 312.450,272.945 309.840,272.754 309.400 C 272.449 308.698,268.019 297.031,264.780 288.400 C 264.161 286.750,263.268 284.410,262.796 283.200 C 262.324 281.990,261.510 279.830,260.986 278.400 C 260.463 276.970,259.692 274.900,259.274 273.800 C 258.856 272.700,257.570 269.280,256.418 266.200 C 255.265 263.120,254.173 260.240,253.990 259.800 C 253.345 258.248,251.615 253.669,247.040 241.400 C 244.496 234.580,242.231 228.687,242.007 228.305 C 241.783 227.923,241.600 227.437,241.600 227.224 C 241.600 227.011,240.504 223.994,239.165 220.519 C 237.826 217.043,236.489 213.570,236.192 212.800 C 235.896 212.030,234.821 209.060,233.804 206.200 C 232.787 203.340,231.702 200.370,231.393 199.600 C 230.851 198.248,226.396 185.475,225.594 182.972 C 225.230 181.837,225.065 180.394,225.300 180.405 C 226.617 180.467,241.057 185.596,254.000 190.598 C 255.870 191.320,258.210 192.192,259.200 192.535 C 260.190 192.878,261.900 193.505,263.000 193.927 C 264.100 194.349,266.800 195.360,269.000 196.173 C 273.508 197.839,275.626 198.660,277.460 199.454 C 278.154 199.754,278.973 200.000,279.280 200.000 C 279.588 200.000,280.011 200.153,280.220 200.339 C 280.429 200.526,283.030 201.525,286.000 202.560 C 288.970 203.595,293.110 205.063,295.200 205.822 C 297.290 206.581,300.395 207.562,302.100 208.001 C 310.835 210.252,311.290 210.356,320.400 212.181 C 333.568 214.820,349.414 214.402,360.600 211.121 C 381.477 204.997,393.941 189.784,396.420 167.400 C 396.640 165.420,396.884 163.615,396.963 163.389 C 397.219 162.655,396.454 152.264,395.977 150.000 C 395.101 145.843,393.296 139.539,392.369 137.400 C 392.178 136.960,391.676 135.700,391.254 134.600 C 390.281 132.066,386.960 125.788,385.734 124.162 C 385.220 123.481,384.800 122.807,384.800 122.663 C 384.800 122.519,384.125 121.456,383.300 120.301 C 376.634 110.964,366.761 103.156,356.036 98.740 C 352.268 97.189,351.420 96.943,345.800 95.772 C 337.003 93.940,324.941 94.386,314.200 96.940 C 310.823 97.743,304.423 99.593,303.649 99.989 C 301.125 101.282,294.273 103.969,293.972 103.783 C 293.762 103.653,293.861 103.056,294.201 102.397 C 294.531 101.761,294.800 100.868,294.800 100.414 C 294.800 99.961,294.970 99.277,295.178 98.895 C 295.810 97.735,297.111 93.188,297.781 89.800 C 298.129 88.040,298.581 85.790,298.786 84.800 C 299.551 81.108,299.682 72.788,299.031 69.200 C 298.692 67.330,298.411 65.282,298.407 64.650 C 298.395 62.704,296.080 56.036,293.744 51.218 C 289.109 41.656,283.825 35.062,275.777 28.790 C 267.966 22.704,259.674 17.687,252.246 14.554 C 249.801 13.523,247.530 12.526,247.200 12.340 C 246.870 12.154,244.980 11.533,243.000 10.961 C 241.020 10.389,238.500 9.655,237.400 9.329 C 236.300 9.003,234.770 8.601,234.000 8.435 C 233.230 8.270,231.970 7.935,231.200 7.692 C 229.059 7.016,224.200 5.999,223.143 6.006 C 222.624 6.010,220.490 5.748,218.400 5.424 C 206.219 3.538,199.894 3.284,188.400 4.218 M162.000 46.797 C 169.806 48.050,176.748 49.799,183.400 52.189 C 186.260 53.217,189.320 54.288,190.200 54.569 C 191.080 54.850,192.610 55.446,193.600 55.893 C 194.590 56.341,197.650 57.644,200.400 58.790 C 218.019 66.130,243.064 80.757,262.271 94.922 C 267.897 99.071,269.110 99.956,270.214 100.715 C 276.450 105.005,268.592 117.704,255.803 124.005 C 253.162 125.307,248.030 127.554,244.400 128.999 C 240.770 130.443,237.440 131.790,237.000 131.992 C 235.823 132.530,230.885 134.455,225.200 136.591 C 218.845 138.978,217.192 139.612,216.200 140.043 C 206.641 144.194,202.321 145.139,198.600 143.893 C 197.500 143.525,195.610 142.930,194.400 142.572 C 189.653 141.165,174.263 135.191,168.082 132.355 C 166.697 131.720,165.471 131.200,165.358 131.200 C 165.245 131.200,162.480 129.865,159.214 128.233 C 146.332 121.797,142.431 119.200,140.838 116.000 C 140.454 115.230,139.209 112.935,138.070 110.899 C 136.932 108.864,136.000 107.119,136.000 107.023 C 136.000 106.926,135.307 105.352,134.460 103.524 C 130.808 95.644,128.033 87.646,126.158 79.600 C 125.122 75.153,125.110 63.678,126.139 61.188 C 128.239 56.107,130.423 53.029,133.746 50.466 C 135.699 48.961,141.687 46.866,145.800 46.249 C 147.931 45.930,158.910 46.301,162.000 46.797 M348.198 126.229 C 353.011 127.171,357.893 128.755,360.800 130.317 C 388.693 145.307,377.629 186.090,343.400 194.452 C 341.640 194.882,339.390 195.433,338.400 195.677 C 335.181 196.471,321.005 196.584,317.431 195.845 C 315.717 195.490,313.814 195.200,313.203 195.200 C 312.592 195.200,311.216 194.945,310.146 194.633 C 309.076 194.321,307.030 193.765,305.600 193.397 C 304.170 193.029,300.723 191.934,297.940 190.964 C 295.157 189.994,292.672 189.200,292.419 189.200 C 291.811 189.200,280.070 183.461,277.000 181.663 C 275.680 180.890,273.199 179.389,271.487 178.329 C 269.774 177.268,268.283 176.400,268.172 176.400 C 266.891 176.400,241.400 157.686,241.400 156.745 C 241.400 156.388,245.256 154.323,248.000 153.209 C 248.990 152.808,251.060 151.910,252.600 151.214 C 256.780 149.326,256.726 149.349,260.600 147.806 C 262.580 147.017,264.560 146.208,265.000 146.007 C 265.440 145.806,267.150 145.111,268.800 144.461 C 270.450 143.811,274.140 142.336,277.000 141.182 C 279.860 140.029,283.010 138.775,284.000 138.396 C 284.990 138.018,287.600 136.984,289.800 136.100 C 296.190 133.531,307.601 129.796,312.109 128.798 C 313.039 128.592,314.970 128.144,316.400 127.803 C 326.984 125.275,340.022 124.630,348.198 126.229 M78.600 126.609 C 86.501 127.522,87.719 127.762,98.000 130.419 C 105.063 132.244,116.896 136.366,122.600 138.987 C 123.260 139.290,125.960 140.377,128.600 141.402 C 131.240 142.427,133.760 143.428,134.200 143.625 C 134.640 143.823,137.520 144.993,140.600 146.226 C 151.345 150.528,163.041 155.756,164.000 156.686 C 164.971 157.627,155.209 162.815,141.992 168.382 C 137.706 170.187,133.840 171.821,133.400 172.014 C 129.251 173.830,113.514 180.039,109.600 181.405 C 103.699 183.464,95.699 185.640,87.600 187.390 C 77.074 189.663,64.694 189.725,55.800 187.548 C 35.371 182.547,24.690 171.024,25.818 155.200 C 27.252 135.081,49.174 123.206,78.600 126.609 M204.600 200.604 C 207.048 205.495,211.062 214.219,212.511 217.800 C 212.868 218.680,214.526 222.910,216.196 227.200 C 217.867 231.490,219.393 235.360,219.589 235.800 C 219.784 236.240,221.050 239.480,222.403 243.000 C 223.755 246.520,225.100 249.940,225.392 250.600 C 226.073 252.140,229.027 259.827,230.235 263.200 C 230.747 264.630,231.510 266.700,231.930 267.800 C 232.351 268.900,233.360 271.600,234.173 273.800 C 234.986 276.000,235.898 278.430,236.200 279.200 C 237.030 281.318,245.800 305.105,247.850 310.800 C 248.840 313.550,249.827 316.232,250.044 316.759 C 251.132 319.414,251.536 322.308,250.791 322.114 C 249.725 321.835,242.005 313.588,235.708 306.000 C 234.455 304.491,227.025 295.827,223.872 292.200 C 222.342 290.440,220.710 288.547,220.245 287.993 C 219.780 287.439,218.490 285.909,217.379 284.593 C 216.267 283.277,215.007 281.730,214.579 281.155 C 213.777 280.080,204.004 268.021,199.878 263.017 C 196.447 258.855,188.688 248.470,186.611 245.259 C 184.529 242.042,184.435 241.256,185.634 237.095 C 186.092 235.503,186.605 233.652,186.773 232.982 C 187.059 231.845,190.407 222.685,192.688 216.800 C 194.321 212.590,199.249 201.103,199.848 200.112 C 200.152 199.611,200.681 198.739,201.025 198.176 C 202.014 196.555,202.861 197.130,204.600 200.604 M178.323 275.861 C 180.605 278.204,184.570 282.569,187.135 285.561 C 189.700 288.552,192.459 291.720,193.266 292.600 C 194.074 293.480,195.148 294.740,195.653 295.400 C 196.159 296.060,196.686 296.690,196.824 296.800 C 196.963 296.910,200.460 300.960,204.597 305.800 C 208.734 310.640,212.857 315.413,213.759 316.406 C 214.662 317.400,216.150 319.110,217.066 320.206 C 217.982 321.303,219.208 322.740,219.790 323.400 C 220.372 324.060,223.130 327.300,225.918 330.600 C 228.707 333.900,233.601 339.668,236.795 343.418 C 239.988 347.167,243.320 351.119,244.200 352.200 C 245.080 353.281,246.442 354.893,247.227 355.783 C 258.830 368.935,276.800 391.741,276.800 393.314 C 276.800 394.075,273.874 399.599,272.744 400.973 C 272.550 401.208,271.539 402.588,270.496 404.041 C 269.453 405.494,266.868 408.554,264.751 410.841 C 262.634 413.128,260.421 415.540,259.832 416.200 C 256.583 419.843,249.341 426.800,248.798 426.800 C 248.168 426.800,243.016 421.765,238.564 416.800 C 235.959 413.895,236.156 414.109,233.373 411.153 C 232.258 409.969,229.843 407.200,228.005 405.000 C 226.168 402.800,224.560 400.910,224.432 400.800 C 224.124 400.535,221.832 397.888,219.600 395.219 C 218.610 394.036,217.618 392.872,217.394 392.634 C 216.994 392.205,212.474 386.928,210.515 384.600 C 209.959 383.940,208.941 382.766,208.252 381.991 C 207.563 381.216,206.280 379.703,205.400 378.629 C 204.520 377.555,202.630 375.294,201.200 373.604 C 199.770 371.915,197.585 369.288,196.346 367.766 C 195.106 366.245,192.226 362.735,189.946 359.967 C 187.665 357.199,183.820 352.523,181.400 349.576 C 178.980 346.629,176.100 343.130,175.000 341.802 C 170.522 336.394,168.091 333.337,167.366 332.200 C 166.945 331.540,166.388 330.730,166.128 330.400 C 164.401 328.203,158.264 319.769,157.422 318.436 C 155.577 315.512,155.929 313.644,161.010 299.400 C 162.030 296.540,163.028 293.660,163.227 293.000 C 163.425 292.340,163.758 291.440,163.967 291.000 C 164.175 290.560,165.545 287.320,167.010 283.800 C 170.480 275.468,172.616 271.600,173.749 271.600 C 173.983 271.600,176.042 273.517,178.323 275.861 M147.396 346.001 C 149.321 348.311,151.018 350.290,151.166 350.400 C 151.314 350.510,152.760 352.220,154.380 354.200 C 155.999 356.180,157.530 357.980,157.782 358.200 C 158.034 358.420,159.668 360.310,161.413 362.400 C 163.159 364.490,165.670 367.472,166.994 369.026 C 168.317 370.580,169.764 372.290,170.209 372.826 C 170.654 373.362,174.141 377.490,177.958 382.000 C 185.415 390.810,187.088 392.800,189.395 395.600 C 190.210 396.590,191.563 398.210,192.400 399.200 C 193.657 400.685,199.412 407.637,207.939 417.971 C 208.742 418.945,209.582 419.935,209.804 420.171 C 210.026 420.407,211.851 422.583,213.860 425.007 C 217.485 429.381,218.617 430.808,223.575 437.253 C 224.992 439.094,226.855 441.410,227.715 442.400 C 230.018 445.048,230.504 446.160,230.061 447.763 C 229.629 449.328,224.911 456.795,221.443 461.400 C 215.722 468.999,204.293 481.200,202.896 481.200 C 201.592 481.200,193.364 472.751,183.418 461.200 C 181.239 458.670,179.344 456.510,179.206 456.400 C 178.713 456.007,162.122 436.472,158.129 431.584 C 155.890 428.843,150.593 422.370,146.356 417.200 C 133.648 401.690,126.800 392.344,126.800 390.506 C 126.800 390.133,127.051 389.101,127.359 388.213 C 127.666 387.326,128.137 385.790,128.405 384.800 C 128.856 383.131,132.436 372.810,133.191 371.000 C 134.256 368.447,135.730 363.851,136.267 361.413 C 136.607 359.866,137.154 357.430,137.483 356.000 C 138.031 353.618,138.722 350.322,139.537 346.200 C 139.876 344.486,140.546 343.132,141.755 341.716 C 142.750 340.550,143.028 340.761,147.396 346.001 " stroke="none" fill="#fff" fill-rule="evenodd"></path></g></svg>